<?xml version="1.0" standalone="no"?>
<!DOCTYPE svg PUBLIC "-//W3C//DTD SVG 20010904//EN"
 "http://www.w3.org/TR/2001/REC-SVG-20010904/DTD/svg10.dtd">
<svg version="1.0" xmlns="http://www.w3.org/2000/svg"
 width="368.000000pt" height="576.000000pt" viewBox="0 0 368.000000 576.000000"
 preserveAspectRatio="xMidYMid meet">

<g transform="translate(0.000000,576.000000) scale(0.100000,-0.100000)"
fill="#000000" stroke="none">
<path d="M3632 5633 c-37 -105 -144 -332 -187 -398 -127 -191 -384 -357 -731
-470 -107 -35 -647 -175 -869 -225 -468 -106 -616 -151 -833 -255 -297 -143
-554 -348 -732 -585 -81 -108 -195 -331 -234 -458 -14 -46 -26 -85 -26 -88 0
-3 28 37 62 88 157 234 405 407 818 571 179 70 443 142 1255 341 448 109 678
193 877 321 226 146 391 341 468 554 55 149 173 651 158 666 -2 2 -14 -26 -26
-62z"/>
<path d="M3626 4063 c-42 -115 -147 -331 -194 -400 -49 -72 -160 -177 -253
-239 -81 -53 -256 -138 -392 -188 -53 -20 -224 -70 -380 -110 -262 -69 -416
-106 -822 -201 -493 -115 -860 -307 -1155 -605 -120 -122 -213 -252 -289 -405
-53 -107 -121 -286 -121 -318 0 -7 14 13 32 43 98 172 278 338 493 455 132 72
359 169 510 218 136 44 561 154 1123 291 149 37 334 87 409 112 278 92 521
232 668 385 158 165 227 289 295 529 41 148 114 484 108 501 -2 5 -16 -25 -32
-68z"/>
<path d="M3620 2517 c-19 -51 -67 -157 -106 -237 -82 -166 -147 -245 -287
-352 -94 -70 -310 -179 -466 -232 -134 -47 -636 -178 -1000 -261 -156 -36
-332 -79 -390 -96 -555 -161 -1029 -530 -1236 -963 -41 -86 -115 -285 -115
-309 0 -6 16 16 36 49 83 139 213 272 359 369 96 64 294 164 451 229 174 71
340 118 983 277 614 152 799 206 951 275 420 191 637 432 750 833 40 144 114
485 108 501 -2 5 -19 -32 -38 -83z"/>
</g>
</svg>
