<?xml version="1.0" standalone="no"?>
<!DOCTYPE svg PUBLIC "-//W3C//DTD SVG 20010904//EN"
 "http://www.w3.org/TR/2001/REC-SVG-20010904/DTD/svg10.dtd">
<svg version="1.0" xmlns="http://www.w3.org/2000/svg"
 width="700.000000pt" height="268.000000pt" viewBox="0 0 700.000000 268.000000"
 preserveAspectRatio="xMidYMid meet">

<g transform="translate(0.000000,268.000000) scale(0.100000,-0.100000)"
fill="#000000" stroke="none">
<path d="M360 2669 c-76 -13 -176 -64 -230 -119 -59 -58 -107 -155 -120 -245
-7 -47 -10 -384 -8 -1010 4 -1051 -1 -981 77 -1102 47 -73 129 -134 220 -166
l66 -22 3085 -3 c2071 -2 3111 1 3163 8 198 25 338 157 373 348 20 113 20
1851 0 1964 -33 183 -161 311 -344 344 -64 11 -588 13 -3152 12 -1749 0 -3099
-4 -3130 -9z m6355 -92 c78 -36 146 -104 182 -181 l28 -61 0 -995 0 -995 -28
-61 c-36 -77 -104 -145 -182 -181 l-60 -28 -3155 0 -3155 0 -61 28 c-77 36
-145 104 -181 182 l-28 60 0 995 0 995 28 60 c47 101 141 180 244 204 22 5
1373 8 3173 8 l3135 -2 60 -28z"/>
<path d="M1494 2105 c-306 -66 -545 -320 -600 -636 -66 -380 158 -748 531
-875 115 -39 304 -46 425 -15 357 90 600 398 600 761 0 360 -242 670 -594 760
-93 24 -265 26 -362 5z m359 -425 c167 -33 354 -107 377 -149 16 -31 12 -63
-12 -88 -30 -32 -52 -29 -149 16 -92 43 -202 74 -322 90 -112 16 -318 13 -412
-5 -146 -28 -168 -29 -189 -5 -24 26 -25 75 -2 99 18 21 121 48 231 62 113 14
356 4 478 -20z m-140 -255 c144 -22 343 -93 400 -143 35 -31 10 -102 -37 -102
-11 0 -52 15 -91 34 -85 42 -136 59 -240 81 -106 23 -313 24 -415 1 -41 -9
-85 -16 -97 -16 -51 0 -74 76 -30 104 20 13 133 41 202 49 74 9 218 6 308 -8z
m84 -274 c45 -13 115 -40 155 -60 61 -31 74 -42 76 -65 4 -30 -12 -56 -35 -56
-8 0 -47 16 -87 35 -117 56 -211 76 -356 77 -78 0 -159 -6 -214 -16 -87 -17
-90 -17 -109 2 -24 25 -17 68 13 77 129 41 421 44 557 6z"/>
<path d="M2747 2113 c-4 -3 -7 -89 -7 -190 l0 -183 120 0 120 0 0 25 c0 25 -1
25 -90 25 l-90 0 0 165 0 165 -23 0 c-13 0 -27 -3 -30 -7z"/>
<path d="M3044 2105 c-9 -23 3 -45 24 -45 25 0 44 23 36 44 -8 20 -53 21 -60
1z"/>
<path d="M3470 2050 c0 -36 -2 -40 -25 -40 -18 0 -25 -5 -25 -20 0 -15 7 -20
25 -20 l25 0 0 -100 c0 -88 2 -102 21 -121 17 -17 29 -20 56 -16 43 7 46 10
39 35 -5 14 -13 18 -27 15 -31 -8 -39 13 -39 105 l0 82 30 0 c23 0 30 4 30 20
0 16 -7 20 -30 20 -28 0 -30 2 -30 40 0 36 -2 40 -25 40 -22 0 -25 -4 -25 -40z"/>
<path d="M3215 2008 c-31 -17 -45 -39 -45 -74 0 -40 12 -49 96 -77 56 -18 70
-26 72 -44 6 -43 -78 -53 -135 -17 -18 11 -23 11 -34 -3 -11 -13 -10 -18 9
-33 46 -38 138 -37 187 1 52 42 21 119 -54 135 -69 15 -91 26 -91 45 0 34 44
46 98 27 35 -13 48 -14 54 -5 13 21 9 28 -27 43 -40 17 -102 18 -130 2z"/>
<path d="M3700 2002 c-124 -62 -97 -244 39 -267 69 -11 151 22 132 54 -7 10
-17 10 -55 -3 -41 -14 -51 -14 -81 -2 -31 13 -55 41 -55 65 0 7 39 11 110 11
l110 0 0 28 c0 67 -66 132 -135 132 -16 0 -46 -8 -65 -18z m121 -51 c16 -16
29 -34 29 -40 0 -7 -31 -11 -85 -11 -88 0 -100 7 -72 42 36 45 88 49 128 9z"/>
<path d="M4057 2000 c-31 -17 -37 -17 -37 -5 0 9 -9 15 -25 15 l-25 0 0 -135
0 -135 25 0 c25 0 25 0 25 99 0 92 2 101 22 115 27 19 89 21 106 4 8 -8 12
-48 12 -115 l0 -103 31 0 32 0 -5 116 c-4 112 -5 118 -32 140 -34 30 -79 31
-129 4z"/>
<path d="M4514 2006 c-92 -40 -111 -175 -34 -240 92 -77 240 -11 240 108 0
106 -108 175 -206 132z m125 -62 c14 -18 21 -41 21 -71 0 -57 -33 -93 -85 -93
-53 0 -85 36 -85 95 0 61 32 95 89 95 31 0 44 -6 60 -26z"/>
<path d="M4877 2001 c-29 -15 -37 -16 -37 -5 0 8 -10 14 -25 14 l-25 0 0 -135
0 -135 25 0 c25 0 25 0 25 99 0 92 2 101 22 115 33 23 95 21 108 -3 5 -11 10
-63 10 -115 0 -96 0 -96 25 -96 l25 0 0 119 c0 117 -1 120 -26 140 -33 26 -79
27 -127 2z"/>
<path d="M3050 1875 l0 -135 25 0 25 0 0 135 0 135 -25 0 -25 0 0 -135z"/>
<path d="M5015 1528 c-32 -19 -44 -41 -45 -80 0 -49 48 -93 94 -84 40 8 76 49
76 86 0 59 -77 107 -125 78z"/>
<path d="M5355 1500 c-59 -18 -105 -91 -105 -166 0 -30 -3 -33 -32 -36 l-33
-3 0 -60 0 -60 33 -3 32 -3 0 -210 0 -209 70 0 70 0 0 210 0 210 58 0 58 0 87
-212 c82 -200 86 -213 72 -235 -17 -25 -70 -32 -105 -13 -17 9 -23 4 -45 -39
-14 -28 -25 -53 -25 -55 0 -10 41 -27 87 -35 97 -19 170 16 213 99 14 27 133
330 231 588 8 22 7 22 -65 22 l-74 0 -63 -184 c-35 -101 -66 -183 -69 -181 -4
2 -37 85 -75 184 l-68 181 -109 0 -108 0 0 28 c0 51 20 65 83 60 l57 -5 0 58
c0 32 -4 60 -10 64 -17 11 -135 14 -165 5z"/>
<path d="M2938 1470 c-52 -16 -108 -54 -135 -93 -39 -56 -44 -155 -11 -212 37
-63 84 -88 272 -140 62 -17 106 -52 106 -84 0 -11 -11 -32 -24 -47 -20 -24
-32 -28 -89 -32 -58 -4 -74 -1 -129 27 -35 16 -73 37 -84 46 -21 15 -23 14
-63 -34 -22 -27 -41 -51 -41 -54 0 -13 113 -78 170 -97 91 -31 214 -26 285 11
129 66 154 259 45 338 -42 30 -79 45 -212 85 -118 36 -145 74 -94 133 22 26
30 28 93 28 58 0 76 -5 125 -33 32 -17 60 -32 62 -32 2 0 21 23 41 52 36 49
37 52 19 66 -86 64 -247 99 -336 72z"/>
<path d="M4640 1365 l0 -75 -35 0 -36 0 3 -57 c3 -57 3 -58 36 -61 l32 -3 0
-162 c0 -179 8 -211 63 -251 23 -17 43 -21 100 -21 103 1 117 11 117 85 l0 60
-26 -10 c-38 -15 -80 -12 -98 6 -13 12 -16 41 -16 155 l0 139 70 0 70 0 0 60
0 60 -70 0 -70 0 0 75 0 75 -70 0 -70 0 0 -75z"/>
<path d="M3590 1289 c-13 -6 -39 -21 -57 -35 l-33 -25 0 30 0 31 -70 0 -70 0
0 -355 0 -355 70 0 70 0 0 110 0 110 45 -32 c57 -40 150 -50 220 -24 99 38
165 147 165 271 0 168 -106 286 -254 284 -34 0 -72 -5 -86 -10z m120 -128 c20
-10 44 -36 57 -61 83 -157 -84 -321 -213 -208 -40 36 -58 85 -52 148 11 111
115 171 208 121z"/>
<path d="M4165 1288 c-84 -30 -162 -114 -186 -201 -37 -138 49 -298 183 -343
70 -23 178 -16 241 16 124 62 183 206 143 345 -22 74 -97 153 -170 178 -55 19
-164 21 -211 5z m183 -135 c110 -82 87 -257 -38 -294 -183 -55 -280 228 -105
307 39 18 110 12 143 -13z"/>
<path d="M4982 1018 l3 -273 68 -3 67 -3 0 276 0 275 -70 0 -70 0 2 -272z"/>
<path d="M5975 885 c-53 -52 -16 -146 57 -144 33 1 33 1 -6 9 -47 9 -66 32
-66 77 0 70 87 101 129 47 27 -34 27 -64 0 -100 l-21 -29 26 28 c33 36 33 67
0 106 -33 40 -83 43 -119 6z"/>
<path d="M6001 823 c1 -27 3 -40 6 -30 6 22 29 22 42 0 5 -10 13 -14 17 -10 4
4 2 13 -4 19 -8 8 -9 15 -1 25 18 21 2 43 -31 43 -29 0 -30 -1 -29 -47z m49
22 c0 -8 -9 -15 -20 -15 -20 0 -26 11 -13 23 12 13 33 7 33 -8z"/>
</g>
</svg>
